:SAMPLES-PER-SECOND 30
:FULLY-SPECIFIED
:DEGREES
391
root  -42.8963 34.3954 2.35791 -154.751 64.673 -173.331
RightUpLeg  -19.6798 -27.1657 2.76318
RightLeg  13.1162 -9.89282 -1.6321
RightFoot  5.14571 0.0548855 -0.642975
RightToes  -33.531 -0.169515 -0.277466
Spine  2.96925 1.09224 -0.624128
Spine1  5.74583 2.65384 -0.949703
HEad  -60.1869 -8.04416 -4.04278
LeftShoulder1  -1.94126e-019 -3.10601e-018 -2.51263e-017
LeftArm  -11.5739 14.0231 -79.3793
LeftForeArm  26.3146 -28.1873 -4.61411
LeftHand  -0.710944 -0.841678 13.3645
RightShoulder  -4.96962e-017 0 -2.36833e-017
RightArm  -23.349 -6.13289 81.1606
RightForeArm  49.1944 22.1471 2.22495
RightHand  -0.308132 -2.28862 -11.2658
LeftUpLeg  -35.5965 8.30661 -2.47217
LeftLeg  26.6949 15.4529 6.45295
LeftFoot  0.466133 -0.000695176 0.332538
LeftToes  -9.18122 2.40056e-006 -7.68412e-008
392
root  -42.9031 34.4328 2.46688 -154.169 66.4072 -172.548
RightUpLeg  -19.753 -26.1821 2.77152
RightLeg  12.8776 -9.18466 -1.47733
RightFoot  5.46004 0.0560434 -0.631948
RightToes  -33.6062 -0.168494 -0.276127
Spine  2.85161 1.0955 -0.541277
Spine1  5.52347 2.64179 -0.759977
HEad  -59.3578 -8.4977 -3.28981
LeftShoulder1  -1.94126e-019 -3.10601e-018 -2.51263e-017
LeftArm  -10.5299 13.1516 -79.454
LeftForeArm  26.9857 -28.9626 -4.75469
LeftHand  -0.683738 -1.10565 12.3587
RightShoulder  -4.96962e-017 0 -2.36833e-017
RightArm  -21.7121 -6.10213 81.6621
RightForeArm  49.7193 22.5714 2.28251
RightHand  -0.331393 -1.96982 -11.0459
LeftUpLeg  -35.2697 10.0634 -2.62459
LeftLeg  26.3754 15.5163 6.37922
LeftFoot  0.690117 -0.00144914 0.402238
LeftToes  -9.77383 2.40056e-006 -7.68412e-008
393
root  -42.9167 34.4748 2.59512 -153.628 68.183 -171.822
RightUpLeg  -19.9068 -25.2693 2.76151
RightLeg  12.7538 -8.3665 -1.32837
RightFoot  5.61263 0.0539954 -0.579479
RightToes  -33.09 -0.167021 -0.274404
Spine  2.7296 1.0749 -0.460278
Spine1  5.29362 2.57588 -0.567726
HEad  -58.7315 -8.91027 -2.46283
LeftShoulder1  -1.94126e-019 -3.10601e-018 -2.51263e-017
LeftArm  -9.46151 12.3508 -79.405
LeftForeArm  27.3517 -29.699 -4.90461
LeftHand  -0.686911 -1.21653 12.2155
RightShoulder  -4.96962e-017 0 -2.36833e-017
RightArm  -19.7967 -6.14167 82.1002
RightForeArm  50.2719 22.9722 2.33482
RightHand  -0.349175 -1.71987 -10.8865
LeftUpLeg  -34.9168 11.7765 -2.79746
LeftLeg  25.9795 15.6381 6.30426
LeftFoot  1.06862 -0.00333802 0.519534
LeftToes  -10.4463 2.40056e-006 -7.68412e-008
394
root  -42.9317 34.5117 2.73177 -153.249 69.9135 -171.31
RightUpLeg  -20.1383 -24.5651 2.71936
RightLeg  12.7149 -7.43407 -1.17618
RightFoot  5.64576 0.0496458 -0.498065
RightToes  -32.8185 -0.164972 -0.272251
Spine  2.57534 0.975045 -0.367318
Spine1  5.00325 2.33872 -0.343327
HEad  -58.4133 -9.19471 -1.74206
LeftShoulder1  -1.94126e-019 -3.10601e-018 -2.51263e-017
LeftArm  -8.4726 11.7035 -79.2266
LeftForeArm  27.2946 -30.3733 -5.06552
LeftHand  -0.681263 -1.10946 12.3077
RightShoulder  -4.96962e-017 0 -2.36833e-017
RightArm  -17.7139 -6.32017 82.4051
RightForeArm  50.8213 23.3505 2.38338
RightHand  -0.373262 -1.37237 -10.6806
LeftUpLeg  -34.4965 13.0375 -2.91641
LeftLeg  25.4855 16.1031 6.32799
LeftFoot  1.51057 -0.00664696 0.665795
LeftToes  -11.1318 2.40056e-006 -7.68412e-008
395
root  -42.9456 34.5442 2.90322 -152.832 71.8 -170.783
RightUpLeg  -20.4071 -23.3494 2.61022
RightLeg  12.7438 -6.9053 -1.09656
RightFoot  5.56237 0.0468345 -0.442163
RightToes  -32.5991 -0.162222 -0.269618
Spine  2.38615 0.923511 -0.296566
Spine1  4.64402 2.19585 -0.160875
HEad  -58.225 -9.30277 -1.13014
LeftShoulder1  -1.94126e-019 -3.10601e-018 -2.51263e-017
LeftArm  -7.9748 11.1163 -78.981
LeftForeArm  27.1611 -30.9024 -5.19945
LeftHand  -0.677364 -1.08295 12.2864
RightShoulder  -4.96962e-017 0 -2.36833e-017
RightArm  -15.4371 -6.69581 82.5554
RightForeArm  50.7413 24.1431 2.54216
RightHand  -0.334133 -1.61242 -10.1226
LeftUpLeg  -34.0558 14.4067 -3.05002
LeftLeg  24.92 16.6073 6.33481
LeftFoot  2.01546 -0.0119292 0.839757
LeftToes  -11.9039 2.40056e-006 -7.68412e-008
396
root  -42.9445 34.5752 3.095 -152.743 73.8846 -170.52
RightUpLeg  -20.6581 -21.7456 2.28804
RightLeg  12.9821 -6.62486 -1.08051
RightFoot  5.26012 0.0436987 -0.384701
RightToes  -31.8762 -0.157052 -0.264792
Spine  2.19935 0.946312 -0.246701
Spine1  4.28406 2.21062 -0.0261734
HEad  -58.1046 -9.24487 -0.902483
LeftShoulder1  -1.94126e-019 -3.10601e-018 -2.51263e-017
LeftArm  -7.45286 10.4915 -78.707
LeftForeArm  26.9224 -30.9512 -5.22516
LeftHand  -0.668023 -0.946477 12.3695
RightShoulder  -4.96962e-017 0 -2.36833e-017
RightArm  -13.784 -7.03789 82.5499
RightForeArm  51.1936 24.4155 2.57851
RightHand  -0.348511 -1.30745 -9.80984
LeftUpLeg  -33.454 15.8228 -3.24142
LeftLeg  24.3164 17.1868 6.34578
LeftFoot  2.66598 -0.0212522 1.07488
LeftToes  -13.0213 2.40056e-006 -7.68412e-008
397
root  -42.9338 34.6049 3.32804 -152.65 75.9206 -170.198
RightUpLeg  -20.8672 -19.9661 1.99763
RightLeg  13.3086 -6.55032 -1.10674
RightFoot  4.90702 0.0412383 -0.339535
RightToes  -31.0456 -0.151187 -0.259167
Spine  2.00988 0.961526 -0.207172
Spine1  3.91493 2.23341 0.0626559
HEad  -57.9433 -8.84646 -0.617415
LeftShoulder1  -1.94126e-019 -3.10601e-018 -2.51263e-017
LeftArm  -7.11413 9.85067 -78.3397
LeftForeArm  26.757 -30.7129 -5.17949
LeftHand  -0.654424 -0.754084 12.485
RightShoulder  -4.96962e-017 0 -2.36833e-017
RightArm  -12.5778 -7.31364 82.546
RightForeArm  51.4181 24.086 2.50526
RightHand  -0.356107 -1.15797 -9.68857
LeftUpLeg  -32.8008 17.3302 -3.36125
LeftLeg  23.6645 17.6889 6.3016
LeftFoot  3.32629 -0.033716 1.32274
LeftToes  -14.059 2.40056e-006 -7.68412e-008
398
root  -42.8958 34.63 3.58259 -153.167 77.7977 -170.32
RightUpLeg  -20.8258 -18.422 1.63844
RightLeg  13.6261 -6.40153 -1.11824
RightFoot  4.47163 0.037643 -0.28035
RightToes  -30.2923 -0.145939 -0.253992
Spine  1.85559 0.936291 -0.156854
Spine1  3.61573 2.17544 0.169816
HEad  -57.8425 -8.52125 -0.399632
LeftShoulder1  -1.94126e-019 -3.10601e-018 -2.51263e-017
LeftArm  -6.7774 9.27547 -77.9879
LeftForeArm  26.8312 -30.1922 -5.05425
LeftHand  -0.64095 -0.630169 12.4728
RightShoulder  -4.96962e-017 0 -2.36833e-017
RightArm  -11.6816 -7.5971 82.3547
RightForeArm  51.5495 23.5017 2.38682
RightHand  -0.352606 -1.20081 -9.68551
LeftUpLeg  -31.8688 18.3646 -3.28699
LeftLeg  23.0425 18.4445 6.34051
LeftFoot  4.13068 -0.0538196 1.65389
LeftToes  -15.4732 2.40056e-006 -7.68412e-008
399
root  -42.8415 34.6446 3.87976 -153.758 79.4397 -170.385
RightUpLeg  -20.6287 -16.8498 1.36899
RightLeg  14.0383 -6.4212 -1.16931
RightFoot  3.94581 0.0340663 -0.223195
RightToes  -29.5612 -0.140911 -0.248905
Spine  1.73204 0.864892 -0.0592694
Spine1  3.3755 2.03676 0.355826
HEad  -57.7759 -8.07075 -0.0463208
LeftShoulder1  -1.94126e-019 -3.10601e-018 -2.51263e-017
LeftArm  -6.54039 8.75609 -77.6912
LeftForeArm  26.764 -29.4986 -4.89807
LeftHand  -0.631654 -0.591871 12.3696
RightShoulder  -4.96962e-017 0 -2.36833e-017
RightArm  -11.466 -7.70709 82.0392
RightForeArm  51.9748 22.2205 2.12235
RightHand  -0.397752 -0.64211 -9.70858
LeftUpLeg  -30.8666 19.1011 -2.9349
LeftLeg  22.6455 19.2506 6.46044
LeftFoot  4.95385 -0.0805408 2.02332
LeftToes  -16.9116 2.40056e-006 -7.68412e-008
400
root  -42.7729 34.6496 4.21905 -154.138 80.9626 -170.143
RightUpLeg  -20.3818 -15.3066 1.24899
RightLeg  14.6075 -6.48296 -1.24715
RightFoot  3.26431 0.0294063 -0.151884
RightToes  -28.5192 -0.133858 -0.241543
Spine  1.6147 0.79229 0.0634339
Spine1  3.1507 1.88106 0.603219
HEad  -57.6302 -7.76559 0.406426
LeftShoulder1  -1.94126e-019 -3.10601e-018 -2.51263e-017
LeftArm  -6.28265 8.3939 -77.4959
LeftForeArm  26.8165 -28.7459 -4.72383
LeftHand  -0.625064 -0.533536 12.3578
RightShoulder  -4.96962e-017 0 -2.36833e-017
RightArm  -10.7237 -8.13408 81.3484
RightForeArm  52.0232 21.671 2.0179
RightHand  -0.412408 -0.470635 -9.73362
LeftUpLeg  -29.8582 19.7467 -2.36131
LeftLeg  22.4806 20.0806 6.66311
LeftFoot  5.72777 -0.112186 2.40385
LeftToes  -18.4474 2.40056e-006 -7.68412e-008
401
root  -42.7136 34.6375 4.6036 -153.611 82.3192 -169.007
RightUpLeg  -20.2513 -13.6822 1.36592
RightLeg  15.3872 -6.72446 -1.38849
RightFoot  2.48715 0.0242356 -0.0741635
RightToes  -27.3532 -0.126126 -0.233156
Spine  1.487 0.717073 0.238802
Spine1  2.906 1.72852 0.944648
HEad  -57.596 -7.51912 1.01388
LeftShoulder1  -1.94126e-019 -3.10601e-018 -2.51263e-017
LeftArm  -6.12677 8.24699 -77.4266
LeftForeArm  26.9189 -28.2306 -4.60326
LeftHand  -0.597634 -0.0616216 12.8031
RightShoulder  -4.96962e-017 0 -2.36833e-017
RightArm  -10.6192 -8.49167 80.6248
RightForeArm  52.1539 20.9844 1.88544
RightHand  -0.411975 -0.390794 -9.57587
LeftUpLeg  -29.0844 20.2253 -1.54372
LeftLeg  22.788 20.8438 7.02356
LeftFoot  6.43094 -0.147229 2.78181
LeftToes  -19.9206 2.40056e-006 -7.68412e-008
402
root  -42.6582 34.6099 5.00932 -152.422 83.548 -167.218
RightUpLeg  -20.1489 -12.299 1.62403
RightLeg  16.2303 -6.82183 -1.51345
RightFoot  1.63274 0.0176084 0.0239181
RightToes  -26.2541 -0.118995 -0.225107
Spine  1.39437 0.632723 0.432683
Spine1  2.73057 1.56297 1.31323
HEad  -57.682 -7.24518 1.78914
LeftShoulder1  -1.94126e-019 -3.10601e-018 -2.51263e-017
LeftArm  -6.19221 8.26412 -77.5541
LeftForeArm  27.4502 -27.898 -4.51204
LeftHand  -0.61517 -0.205565 12.8488
RightShoulder  -4.96962e-017 0 -2.36833e-017
RightArm  -10.5861 -8.71814 79.7512
RightForeArm  52.1629 20.2379 1.74789
RightHand  -0.406612 -0.429389 -9.5208
LeftUpLeg  -28.45 20.5643 -0.604559
LeftLeg  23.4028 21.5625 7.50183
LeftFoot  7.05332 -0.184218 3.15003
LeftToes  -21.3789 2.40056e-006 -7.68412e-008
403
root  -42.6051 34.5689 5.43097 -149.531 84.7756 -163.687
RightUpLeg  -20.0445 -11.0181 2.02412
RightLeg  17.1419 -6.79964 -1.62249
RightFoot  0.766391 0.0105481 0.128174
RightToes  -25.2742 -0.112769 -0.217817
Spine  1.33773 0.591341 0.659087
Spine1  2.62671 1.48823 1.73856
HEad  -57.8587 -7.03989 2.50769
LeftShoulder1  -1.94126e-019 -3.10601e-018 -2.51263e-017
LeftArm  -6.34869 8.47972 -77.8387
LeftForeArm  27.2008 -27.9503 -4.54366
LeftHand  -0.578016 0.0244987 12.5774
RightShoulder  -4.96962e-017 0 -2.36833e-017
RightArm  -10.8357 -8.90569 78.7587
RightForeArm  52.1247 19.4658 1.60859
RightHand  -0.398237 -0.537219 -9.52073
LeftUpLeg  -27.8867 21.2607 0.396396
LeftLeg  24.2099 21.8782 7.93993
LeftFoot  7.61343 -0.219003 3.45211
LeftToes  -22.7529 2.40056e-006 -7.68412e-008
404
root  -42.5672 34.5242 5.86098 -145.133 85.8652 -158.671
RightUpLeg  -20.0205 -10.0456 2.50769
RightLeg  18.1596 -6.58549 -1.69595
RightFoot  -0.112735 0.00351664 0.23244
RightToes  -24.1162 -0.105574 -0.209066
Spine  1.31634 0.540309 0.893875
Spine1  2.59223 1.397 2.17276
HEad  -58.1569 -6.73592 3.32586
LeftShoulder1  -1.94126e-019 -3.10601e-018 -2.51263e-017
LeftArm  -6.45031 8.74965 -78.4001
LeftForeArm  27.3866 -27.9251 -4.53645
LeftHand  -0.577638 0.0790258 12.6934
RightShoulder  -4.96962e-017 0 -2.36833e-017
RightArm  -11.3621 -9.0179 77.7271
RightForeArm  52.2183 18.6228 1.45226
RightHand  -0.38902 -0.747674 -9.69954
LeftUpLeg  -27.4412 22.1196 1.37869
LeftLeg  25.1074 21.8513 8.30613
LeftFoot  8.32492 -0.262833 3.77191
LeftToes  -24.422 2.40056e-006 -7.68412e-008
405
root  -42.5652 34.4819 6.27584 -139.401 87.0424 -152.5
RightUpLeg  -20.224 -9.1288 2.84525
RightLeg  19.1826 -6.29372 -1.74181
RightFoot  -0.970888 -0.00270727 0.32603
RightToes  -22.8514 -0.0979178 -0.199343
Spine  1.34607 0.522289 1.02024
Spine1  2.65536 1.37803 2.38161
HEad  -58.6737 -6.37533 4.45898
LeftShoulder1  -1.94126e-019 -3.10601e-018 -2.51263e-017
LeftArm  -6.21935 8.99374 -78.9433
LeftForeArm  27.2061 -28.3087 -4.63218
LeftHand  -0.587703 -0.308337 12.0675
RightShoulder  -4.96962e-017 0 -2.36833e-017
RightArm  -12.3674 -8.90415 76.8669
RightForeArm  52.1515 17.6996 1.28906
RightHand  -0.376725 -0.964258 -9.82775
LeftUpLeg  -27.1988 23.1472 2.05884
LeftLeg  25.9238 21.6992 8.59453
LeftFoot  9.2383 -0.322797 4.15527
LeftToes  -26.0789 2.40056e-006 -7.68412e-008
